<svg xmlns="http://www.w3.org/2000/svg" width="359.8" height="530.1" viewBox="0 0 359.8 530.1"><title>logo-new</title><g id="S"><path d="M206.4,94.3h-3.3l-7.1.3c-4.6.4-9.2,1-13.8,1.7l-6.8,1.3L170,98.9l-10.5,2.3-2,.6-5.8,1.7-9.6,2.7-2.4.9-5.9,2.1-6.3,2.2-3.3,1.2h.2l-8.6,3.7-5.8,2.4-2.6,1.1-9,4.5c-3.4,1.6-6.8,3.3-10.1,5.1A219.4,219.4,0,0,0,59.4,148a146,146,0,0,0-12.7,10.9l-1.6,1.4-1.5,1.4-2.9,2.9-2.8,2.9a39.2,39.2,0,0,0-2.7,3.3,32.7,32.7,0,0,0-3.5,4.8,29.2,29.2,0,0,0-2.7,6.3,20.1,20.1,0,0,0,.2,8.1,10.3,10.3,0,0,0,.7,2.5c.5,1.1.8,1.9,1.3,2.8a30.1,30.1,0,0,0,2.2,2.8,30.1,30.1,0,0,0,3.9,4.1,34.8,34.8,0,0,0,3.9,2.8l3,1.6c2.4,1.2,4.9,2.2,7.4,3.2a48.1,48.1,0,0,0,6.5,1.8A129.9,129.9,0,0,0,73.3,214c4.5.5,9,.8,13.5,1h63.9c6.1.1,12.2,0,18.3.2l12.9.4,6,.2,12,.8,5.2.3,1.7.2,16.7,2.1,12.2,2.2,2.6.5,3.7.9,7.9,2.3c2.6.8,5.1,1.8,7.7,2.8s4.4,2,6.5,3.2a69,69,0,0,1,6.3,4.2,33.1,33.1,0,0,1,4.9,5c.3.5.7,1,1,1.6a20,20,0,0,1,1,2.1,16.5,16.5,0,0,1,1.1,3.6,20.5,20.5,0,0,1,0,3.5,15,15,0,0,1-2.4,6l-2,3c-1.5,1.8-3.3,3.5-4.9,5.2a69.1,69.1,0,0,1-5.7,5.1l-1.6,1.1-4,3.1c-3.1,2.4-6.4,4.6-9.7,6.8l-5.4,3.6-5.9,3.7c-3.6,2.2-7.2,4.2-10.8,6.2-5.2,2.9-10.4,5.9-15.7,8.6l-11.4,5.7-4.7,2.3-1.4.7L173,321.2l-1.5.6-18.9,7.7-4.6,1.8-11,4-10.2,3.6c-1.7.7-3.5,1.2-5.3,1.8l-12.5,4-5.6,1.8c-6.5,1.9-13,4-19.5,5.8l-8.7,2.4-9.3,2.4c-5.7,1.5-11.5,2.9-17.2,4.2l-9.5,2-10.3,2.1c-8.1,1.7-16.2,3.4-24.2,4.9h0L24,367.1l16.6-2.9,11.9-2.3,7.6-1.7,19.5-4.4,17.8-4.1,7.7-1.7,8.7-2.2c5.5-1.4,11.1-2.7,16.6-4.3l20.7-5.7,6.9-2,12.6-3.8,15.5-4.9c5.3-1.6,10.6-3.3,15.8-5.1l12.3-4.2,5.4-1.9,10.9-4.2c3.6-1.4,7.3-2.8,10.8-4.4s8.2-3.8,12.3-5.8,7.7-4.4,11.4-6.8l5.3-3.5c2.3-1.8,4.6-3.6,6.8-5.6a55.5,55.5,0,0,0,9.7-10.8,44.2,44.2,0,0,0,4.5-9.6,10.5,10.5,0,0,0,.5-1.9c.2-1.4.4-2.7.5-4.1a21.4,21.4,0,0,0-.1-4.4c-.1-1.1-.2-2.2-.4-3.3a26.8,26.8,0,0,0-1.3-3.4,23.6,23.6,0,0,0-2.2-3.8,32.9,32.9,0,0,0-3.3-4.1c-1.2-1.1-2.6-2.2-3.9-3.2s-2.3-1.7-3.5-2.5-3-1.5-4.4-2.4a75.6,75.6,0,0,0-9.1-4.3l-5.5-2.2-6.5-2.2-6.3-2-6.3-1.8c-3.4-.7-6.7-1.6-10-2.4s-4.3-1.2-6.6-1.6l-12.2-2.5-4-.8-5.8-.9-9-1.4-4.6-.7h.4L167,206.4l-20.6-2.8c-12.4-1.6-24.7-3.4-37.1-5.2l-17.7-2.5-5.9-.8-6.4-1L73,193c-4.2-.6-8.3-1.3-12.4-2.3l-3-.8-2.9-.7a33.3,33.3,0,0,1-5.1-1.6l-1.9-.8a23.2,23.2,0,0,1-4.1-2.2,18.9,18.9,0,0,1-2-2l-.9-1.4a16,16,0,0,1-.5-2.1,13.4,13.4,0,0,1,.1-2.8,15.5,15.5,0,0,1,.4-2.1,11.3,11.3,0,0,1,.8-2.4,34.2,34.2,0,0,1,2.1-4.3l1.4-2.1,1.7-2.4,2.9-3.4c1.2-1.2,2.4-2.4,3.7-3.5s4.8-4.2,7.3-6.2a190.8,190.8,0,0,1,17.7-12.1c3.2-1.9,6.6-3.7,9.9-5.4l5.5-2.6,15.2-6.8,8.7-3.2,5.9-2.2,2.4-.9,9.5-2.9,5.9-1.9,2.3-.7,9.9-2.4,5.7-1.4,2-.5c7.8-1.5,15.5-3.1,23.3-4.3l4.6-.6c4.3-.6,8.6-1.1,12.9-1.4l8.5-.5,11.9-.2c2.5-.1,5.1,0,7.7.1s5.5.1,8.3.4l9.7.9a83.7,83.7,0,0,1,21.5,5.4,30.3,30.3,0,0,1,6.8,3.8,18.5,18.5,0,0,1,2.8,2.8,14,14,0,0,1,1,1.6,8.3,8.3,0,0,1,.4,1.5h0l.3,2.4h0c0-.9-.1-1.8-.1-2.8a9,9,0,0,0-2.2-4.2,21,21,0,0,0-4.2-3.7,32,32,0,0,0-5.7-3.2,78.6,78.6,0,0,0-11.7-4.5,93.2,93.2,0,0,0-9.1-2.3l-10.4-1.9-3.7-.4-6.6-.7-3-.3-4.3-.2-10.2-.4h-3.3ZM188.7,102h0Zm91.5,12.9ZM257.6,228.1h0ZM124.4,112.5h0Z" fill="#fff"/></g><g id="N"><path d="M355.1,6.9c-4.3,3.3-8.4,6.9-12.5,10.5s-8.3,7.3-12.3,11.2l-4.2,4.1-2.2,2.2-6.4,7.3q-5.4,6-10.5,12c-.5.5-.9,1.1-1.4,1.7L302,60.5,298.6,65c-.6.8-1.3,1.6-1.9,2.5L286.5,82.3c-1,1.5-1.8,3.1-2.7,4.6l-6.1,10.3a37,37,0,0,0-2.5,4.3l-4.2,8.2c-1.7,3.4-3.4,6.9-5.2,10.3-.6,1.1-1.1,2.3-1.7,3.5l-8.8,19.6c-.7,1.5-1.4,3-2,4.5l-2.7,6.8-7.8,20.1c-.4,1-.7,2-1.1,3.1l-3.3,9.7c-2.1,6-4.2,12.1-6.2,18.2-.5,1.3-.8,2.6-1.2,3.8-1,3.5-2.1,7-3.1,10.5-1.8,6.1-3.6,12.2-5.5,18.3l-.9,3.5c-.9,3.4-1.9,6.8-2.8,10.2-1.8,6.5-3.5,13.1-5.3,19.6-1.1,4.2-2.2,8.4-3.2,12.6-1.8,6.7-3.5,13.4-5.2,20.1-2.7,10.6-5.6,21.2-8.4,31.8-1.2,4.8-2.5,9.7-3.8,14.6s-2.6,10-4.1,15l-6.3,21.9c-1.3,4.7-2.7,9.5-4.1,14.2-.7,2.2-1.4,4.4-2.2,6.6s-.6,1.9-1,2.8-.7,2.4-1,3.5a99.8,99.8,0,0,1-3.1,9.7,39.4,39.4,0,0,0-2.2,5.5l-.9,3-.8,1.5a4.7,4.7,0,0,0-.9,1.2,17,17,0,0,1-2.4-2.2,75.8,75.8,0,0,1-4-7.4l-1.8-6.1c-.5-1.8-1-3.6-1.4-5.4l-.9-4.2c-.8-3.6-1.5-7.2-2.3-10.8-.2-.9-.2-1.8-.4-2.6s-.7-4.5-1-6.8l-1.5-9.7c-1.4-10.7-2.8-21.3-4-32-.6-5.2-1.3-10.4-1.8-15.6-.7-7-1.3-13.9-2-20.9-.9-9.6-1.6-19.3-2.6-28.9-1.2-11.5-2.3-22.9-3.4-34.3-2.2-22-4.4-44.1-7.3-66-1.3-10-2.7-20-4.1-30-.2-1.3-.3-2.7-.5-4l-.3-1.4,3-12.8c.4-1.8.7-3.7,1.1-5.5l1.5-8.1a104.2,104.2,0,0,0,1.4-13.7,78.6,78.6,0,0,0-.3-9.7c-.1-1.3-.3-2.7-.5-4a35,35,0,0,0-1.4-4.6h0c.3,1.2.5,2.5.7,3.7.6,5.7,0,11.5-.7,17.2s-1.6,9.1-2.6,13.6-1.6,6.7-2.3,10l-1.5,5.7a27.6,27.6,0,0,1-.8-2.7c-.4-1.2-.7-2.4-1.1-3.6a13.4,13.4,0,0,0-1.4-3.6,16,16,0,0,0-3.9-4.3,18.4,18.4,0,0,0-2.2-1.7,10.8,10.8,0,0,0-5.5-1.5,11.3,11.3,0,0,0-9.6,5.4l-.2.4-.6,1.2-.3.5a13.5,13.5,0,0,0-1.8,6.5v1.2c0,1.9,0,3.8-.1,5.7a16.9,16.9,0,0,0,.1,2.3l.6,6c.2,2,.3,4,.7,6s.5,2.6.7,3.9c.7,3.6,1.3,7.1,2,10.6.3,1.7.7,3.3,1.1,5l1.2,5-.6,5c-.8,5.8-1.6,11.5-2.3,17.2l-2.7,18.7c-.6,4.8-1.4,9.5-2.2,14.3s-1.4,9.6-2.3,14.4-1.9,11.4-2.9,17.1-2.3,8.9-3.5,13.3-2,8.3-3.1,12.5c-1.4,5.8-2.9,11.7-4.3,17.5-2.3,10.2-4.8,20.4-7,30.7l-7.5,34.8c-2.5,12-4.9,24-7.3,36q-1.5,7.1-2.7,14.1c-1,5-2,10-2.8,15s-1.9,10.7-2.8,16.1c-.4,2.9-.9,5.8-1.4,8.6s-.4,2.8-.7,4.2c-1,4.2-2,8.3-2.9,12.5L41,490.8c-.5,1.9-.8,3.8-1.2,5.7s-.9,3.8-1.3,5.6-.5,1.9-.7,2.8-.3,1.7-.4,2.6a25,25,0,0,1-.7,2.6,9.8,9.8,0,0,1-.5,1.6,8.8,8.8,0,0,0-.2,1.6,5.2,5.2,0,0,0-.2,1.1h0a6.8,6.8,0,0,0,.7,5.4,6.9,6.9,0,0,0,9.5,2.5c2-1.1,3.9-2.2,5.2-4.3a46,46,0,0,0,2.9-5.9c.3-.8.6-1.6,1-2.5L56,507c.6-2.2,1.1-4.4,1.7-6.6s1-3.7,1.3-5.5l.9-4.9c.7-3.5,1.3-7,2-10.5a52.1,52.1,0,0,0,.8-5.5c.9-6,1.8-12,2.6-18s1.5-12.8,2.3-19.3c1.2-10.3,2.5-20.6,3.8-30.9,1.6-12.5,3.2-25,4.9-37.6.3-2,.5-4.1.8-6.2,3-21.6,6.1-43.1,9.5-64.6,1-6.8,2.1-13.7,3.2-20.5.4-2.9.9-5.8,1.4-8.7s1.7-6.5,2.6-9.8c2.9-10.8,5.7-21.7,8.8-32.4l5.7-19.9c2.8,10.1,5.7,20.1,8.5,30.2L118,241l3,11.6c1.1,4.2,2.2,8.5,3.2,12.8,1.5,6.5,3.1,13,4.6,19.5.4,1.6.7,3.2,1,4.9l2.4,11.6c2.2,10.9,4.2,21.7,6.2,32.6l5.7,30.1c1.1,5.7,2.1,11.4,3.2,17.1s2.5,12.4,3.7,18.5c.8,4.2,1.7,8.2,2.6,12.3.5,2.5,1,5,1.6,7.5l.9,3.6c.4,1.5.9,3,1.2,4.5a72.5,72.5,0,0,0,1.7,7.8,53.9,53.9,0,0,0,.8,5.6v1.5a16.5,16.5,0,0,0,.4,3.1,8.4,8.4,0,0,0,.5,1.7,19.2,19.2,0,0,0,1.4,3.3,25.5,25.5,0,0,0,2.4,3.1c1.7,1.7,3.5,2.3,5.6,3.1a22.3,22.3,0,0,0,4.6.8h2.7a40.1,40.1,0,0,0,5-.7,12.6,12.6,0,0,0,4.8-2.3,36,36,0,0,0,5.9-5.1,82.2,82.2,0,0,0,5.2-6.5l1.5-2a8,8,0,0,0,.8-1.6,8,8,0,0,0,.8-1.6,127.6,127.6,0,0,0,5.4-13.3c.6-1.8,1.3-3.5,1.8-5.3s1.1-4.5,1.6-6.8c1.3-6.3,2.6-12.7,3.3-19.1s1.7-14.1,2.6-21.2c.5-4.1.8-8.2,1.2-12.4,1.1-11.4,2.3-22.9,3.5-34.3.6-6,1.2-11.9,1.9-17.9s1.3-10.4,1.9-15.5l2.1-16.5c1.9-11.4,3.7-22.9,5.6-34.3.2-1.3.6-2.6.8-3.9.8-3.6,1.5-7.1,2.3-10.7l3.9-18.7c.3-1.3.7-2.5,1-3.8,1-3.6,1.9-7.2,2.9-10.8l3-11.4c.5-1.6.8-3.3,1.4-5l5.7-17.3c1.1-3.2,2.1-6.4,3.2-9.5a30.1,30.1,0,0,1,1.1-3.2c3.1-7.7,6.1-15.5,9.3-23.2l8.4-16.8,2.3-4.8,4.6-7.7,5.4-9.3c.8-1.4,1.7-2.7,2.6-4l6.4-9.8,2.9-4.2,8.8-11.7,5.5-6.6c1.5-1.8,2.9-3.6,4.5-5.3l6.9-7.2a12.9,12.9,0,0,1,1.7-1.6l4.5-4.4c4.1-3.9,8.2-7.8,12.2-11.8s7.5-7.4,11.2-11.2l.3-.4ZM98,226.7c.9-5.3,1.6-10.7,2.3-16.1s1.4-10,2.1-15c.3-2.6.7-5.1,1-7.7.5,1.9.9,3.8,1.4,5.7l1.8,6.6c-3.6,13.8-7.2,27.6-10.9,41.4.8-5,1.6-9.9,2.3-14.9Zm.9-23.5v0Zm0,.2v0ZM57.2,419.5c.9-4.7,1.9-9.4,2.9-14.1S62,395.8,63,391c2.3-11.3,4.7-22.6,7.1-33.9,1.4-6.1,2.7-12.1,4-18.2s2.7-11.6,4-17.4c1-4.2,1.9-8.3,2.9-12.4q-2.2,12.1-4.8,24.3c-2.2,11.2-4.4,22.3-6.7,33.5l-4.2,20c-1.1,5.4-2.4,10.8-3.6,16.1-2.4,10.9-4.9,21.7-7.5,32.5l3-16Z" fill="#fff"/></g></svg>